<svg width="240" height="28" viewBox="0 0 240 28" fill="none" xmlns="http://www.w3.org/2000/svg">
<path d="M5.27467e-05 1.85769C5.27467e-05 1.23514 0.504726 0.730469 1.12727 0.730469H6.68808C7.31062 0.730469 7.8153 1.23514 7.8153 1.85769V7.41849C7.8153 8.04104 7.31062 8.54571 6.68808 8.54571H1.12727C0.504726 8.54571 5.27467e-05 8.04104 5.27467e-05 7.41849V1.85769Z" fill="#508FFF"/>
<path d="M0 11.1761C0 10.5536 0.504673 10.0489 1.12722 10.0489H6.68803C7.31057 10.0489 7.81524 10.5536 7.81524 11.1761V16.7369C7.81524 17.3595 7.31057 17.8641 6.68802 17.8641H1.12722C0.504673 17.8641 0 17.3595 0 16.7369V11.1761Z" fill="white" fill-opacity="0.15"/>
<path d="M0 20.4944C0 19.8718 0.504673 19.3672 1.12722 19.3672H6.68803C7.31057 19.3672 7.81524 19.8718 7.81524 20.4944V26.0552C7.81524 26.6777 7.31057 27.1824 6.68802 27.1824H1.12722C0.504673 27.1824 0 26.6777 0 26.0552V20.4944Z" fill="#74A6FF"/>
<path d="M9.31849 1.85774C9.31849 1.23519 9.82316 0.73052 10.4457 0.73052H16.0065C16.6291 0.73052 17.1337 1.23519 17.1337 1.85774V7.41855C17.1337 8.04109 16.6291 8.54576 16.0065 8.54576H10.4457C9.82316 8.54576 9.31849 8.04109 9.31849 7.41854V1.85774Z" fill="#3E72F3"/>
<path d="M9.31849 11.1761C9.31849 10.5536 9.82316 10.0489 10.4457 10.0489H16.0065C16.6291 10.0489 17.1337 10.5536 17.1337 11.1761V16.7369C17.1337 17.3595 16.6291 17.8641 16.0065 17.8641H10.4457C9.82316 17.8641 9.31849 17.3595 9.31849 16.7369V11.1761Z" fill="#508FFF"/>
<path d="M9.31849 20.4944C9.31849 19.8718 9.82316 19.3672 10.4457 19.3672H16.0065C16.6291 19.3672 17.1337 19.8718 17.1337 20.4944V26.0552C17.1337 26.6777 16.6291 27.1824 16.0065 27.1824H10.4457C9.82316 27.1824 9.31849 26.6777 9.31849 26.0552V20.4944Z" fill="white" fill-opacity="0.15"/>
<path d="M18.6368 1.85774C18.6368 1.23519 19.1415 0.73052 19.764 0.73052H25.3248C25.9474 0.73052 26.4521 1.23519 26.4521 1.85774V7.41855C26.4521 8.04109 25.9474 8.54576 25.3248 8.54576H19.764C19.1415 8.54576 18.6368 8.04109 18.6368 7.41854V1.85774Z" fill="#2949FF"/>
<path d="M18.6368 11.1761C18.6368 10.5536 19.1415 10.0489 19.764 10.0489H25.3248C25.9474 10.0489 26.4521 10.5536 26.4521 11.1761V16.7369C26.4521 17.3595 25.9474 17.8641 25.3248 17.8641H19.764C19.1415 17.8641 18.6368 17.3595 18.6368 16.7369V11.1761Z" fill="#3E72F3"/>
<path d="M18.6368 20.4944C18.6368 19.8718 19.1415 19.3672 19.764 19.3672H25.3248C25.9474 19.3672 26.4521 19.8718 26.4521 20.4944V26.0552C26.4521 26.6777 25.9474 27.1824 25.3248 27.1824H19.764C19.1415 27.1824 18.6368 26.6777 18.6368 26.0552V20.4944Z" fill="#508FFF"/>
<path d="M61.8677 0.847656V27.787H58.2064L41.9614 10.9453V27.787H36.1328V0.847656H40.4729L56.4203 17.7999V0.847656H61.8677Z" fill="white"/>
<path d="M107.706 0.847656V27.787H104.044L87.7993 10.9453V27.787H81.9707V0.847656H86.3108L102.258 17.7999V0.847656H107.706Z" fill="white"/>
<path d="M69.7051 27.9989V8.58984H75.2121V27.9989H69.7051Z" fill="white"/>
<path d="M69.7051 6.36553V1.0625H75.2121V6.36553H69.7051Z" fill="white"/>
<path d="M233.857 27.9992V21.8477H240V27.9992H233.857Z" fill="white"/>
<path d="M135.108 28.0019H114.502V1.0625H138.119L137.479 6.40615H120.05V11.9402H136.737L136.054 17.0627H120.05V22.7319H135.748L135.108 28.0019Z" fill="white"/>
<path d="M141.191 28.0019L144.117 1.0625H154.717C164.399 1.0625 169.574 6.44301 169.574 15.9879C169.574 24.3166 163.171 28.0019 155.534 28.0019H141.191ZM147.319 22.9531H155.813C160.788 22.9531 164.337 20.963 164.337 15.4351C164.337 9.28067 161.367 6.18504 155.813 6.18504H149.316L147.319 22.9531Z" fill="white"/>
<path d="M204.415 14.2029C204.415 21.581 197.908 28 188.635 28C179.363 28 172.855 21.581 172.855 14.2029C172.855 6.16073 180.001 0 188.635 0C197.27 0 204.415 6.16073 204.415 14.2029ZM178.602 14.2029C178.602 18.6298 183.276 22.946 188.635 22.946C193.995 22.946 198.584 18.6298 198.584 14.2029C198.584 9.37022 194.377 5.34914 188.635 5.34914C182.893 5.34914 178.602 9.37022 178.602 14.2029Z" fill="white"/>
<path d="M206.533 1.0625H232.798L232.159 6.40615H222.414V28.0019H216.938V6.40615H206.533V1.0625Z" fill="white"/>
</svg>
