<svg width="32" height="32" viewBox="0 0 32 32" fill="none" xmlns="http://www.w3.org/2000/svg">
<path d="M0 1.36364C0 0.610524 0.610525 0 1.36365 0H8.09079C8.84391 0 9.45444 0.610524 9.45444 1.36364V8.09078C9.45444 8.8439 8.84391 9.45443 8.09079 9.45443H1.36365C0.610525 9.45443 0 8.8439 0 8.09078V1.36364Z" fill="#508FFF"/>
<path d="M0 12.6365C0 11.8834 0.610525 11.2729 1.36365 11.2729H8.09079C8.84391 11.2729 9.45444 11.8834 9.45444 12.6365V19.3637C9.45444 20.1168 8.84391 20.7273 8.09079 20.7273H1.36365C0.610525 20.7273 0 20.1168 0 19.3637V12.6365Z" fill="white" fill-opacity="0.15"/>
<path d="M0 23.9092C0 23.1561 0.610525 22.5456 1.36365 22.5456H8.09079C8.84391 22.5456 9.45444 23.1561 9.45444 23.9092V30.6364C9.45444 31.3895 8.84391 32 8.09079 32H1.36365C0.610525 32 0 31.3895 0 30.6364V23.9092Z" fill="#74A6FF"/>
<path d="M11.2729 1.36365C11.2729 0.61053 11.8834 5.60514e-06 12.6365 5.60514e-06H19.3637C20.1168 5.60514e-06 20.7273 0.61053 20.7273 1.36365V8.09079C20.7273 8.84391 20.1168 9.45443 19.3637 9.45443H12.6365C11.8834 9.45443 11.2729 8.84391 11.2729 8.09079V1.36365Z" fill="#3E72F3"/>
<path d="M11.2729 12.6365C11.2729 11.8834 11.8834 11.2729 12.6365 11.2729H19.3637C20.1168 11.2729 20.7273 11.8834 20.7273 12.6365V19.3637C20.7273 20.1168 20.1168 20.7273 19.3637 20.7273H12.6365C11.8834 20.7273 11.2729 20.1168 11.2729 19.3637V12.6365Z" fill="#508FFF"/>
<path d="M11.2729 23.9092C11.2729 23.1561 11.8834 22.5456 12.6365 22.5456H19.3637C20.1168 22.5456 20.7273 23.1561 20.7273 23.9092V30.6364C20.7273 31.3895 20.1168 32 19.3637 32H12.6365C11.8834 32 11.2729 31.3895 11.2729 30.6364V23.9092Z" fill="white" fill-opacity="0.15"/>
<path d="M22.5456 1.36365C22.5456 0.61053 23.1561 5.60514e-06 23.9092 5.60514e-06H30.6364C31.3895 5.60514e-06 32 0.61053 32 1.36365V8.09079C32 8.84391 31.3895 9.45443 30.6364 9.45443H23.9092C23.1561 9.45443 22.5456 8.84391 22.5456 8.09079V1.36365Z" fill="#2949FF"/>
<path d="M22.5456 12.6365C22.5456 11.8834 23.1561 11.2729 23.9092 11.2729H30.6364C31.3895 11.2729 32 11.8834 32 12.6365V19.3637C32 20.1168 31.3895 20.7273 30.6364 20.7273H23.9092C23.1561 20.7273 22.5456 20.1168 22.5456 19.3637V12.6365Z" fill="#3E72F3"/>
<path d="M22.5456 23.9092C22.5456 23.1561 23.1561 22.5456 23.9092 22.5456H30.6364C31.3895 22.5456 32 23.1561 32 23.9092V30.6364C32 31.3895 31.3895 32 30.6364 32H23.9092C23.1561 32 22.5456 31.3895 22.5456 30.6364V23.9092Z" fill="#508FFF"/>
</svg>
