<svg xmlns="http://www.w3.org/2000/svg" width="20" height="20" viewBox="0 0 20 20" fill="none">
<path d="M19.6 10.2291C19.6 9.51999 19.5364 8.83819 19.4182 8.18359H10V12.0518H15.3818C15.15 13.3018 14.4455 14.3609 13.3864 15.07V17.5791H16.6182C18.5091 15.8382 19.6 13.2745 19.6 10.2291Z" fill="#4285F4"/>
<path d="M10.0009 19.9984C12.7009 19.9984 14.9645 19.1029 16.619 17.5757L13.3872 15.0666C12.4918 15.6666 11.3463 16.0211 10.0009 16.0211C7.39625 16.0211 5.19175 14.262 4.40535 11.8984H1.06445V14.4893C2.70995 17.7575 6.09175 19.9984 10.0009 19.9984Z" fill="#34A853"/>
<path d="M4.4045 11.8987C4.2045 11.2987 4.0909 10.6578 4.0909 9.99871C4.0909 9.33961 4.2045 8.69871 4.4045 8.09871V5.50781H1.0636C0.3864 6.85781 0 8.38511 0 9.99871C0 11.6123 0.3864 13.1396 1.0636 14.4896L4.4045 11.8987Z" fill="#FBBC04"/>
<path d="M10.0009 3.9773C11.469 3.9773 12.7872 4.4818 13.8236 5.4727L16.6918 2.6045C14.96 0.9909 12.6963 0 10.0009 0C6.09175 0 2.70995 2.2409 1.06445 5.5091L4.40535 8.1C5.19175 5.7364 7.39625 3.9773 10.0009 3.9773Z" fill="#E94235"/>
</svg>