<svg width="162" height="24" viewBox="0 0 162 24" fill="none" xmlns="http://www.w3.org/2000/svg">
<path d="M21.2189 1.66797V22.8332H18.3423L5.57927 9.60131V22.8332H1V1.66797H4.40988L16.9391 14.9867V1.66797H21.2189Z" fill="white"/>
<path d="M57.2287 1.66797V22.8332H54.3521L41.589 9.60131V22.8332H37.0098V1.66797H40.4196L52.9488 14.9867V1.66797H57.2287Z" fill="white"/>
<path d="M27.373 22.999V7.75H31.6997V22.999H27.373Z" fill="white"/>
<path d="M27.373 6.00623V1.83984H31.6997V6.00623H27.373Z" fill="white"/>
<path d="M156.344 22.9932V18.1602H161.17V22.9932H156.344Z" fill="white"/>
<path d="M78.7599 23.0051H62.5703V1.83984H81.1251L80.6227 6.03815H66.9296V10.386H80.0392L79.5033 14.4106H66.9296V18.8647H79.2623L78.7599 23.0051Z" fill="white"/>
<path d="M83.5391 23.0051L85.8379 1.83984H94.1659C101.772 1.83984 105.838 6.0671 105.838 13.5661C105.838 20.1097 100.808 23.0051 94.8077 23.0051H83.5391ZM88.353 19.0384H95.0265C98.9356 19.0384 101.724 17.4749 101.724 13.1318C101.724 8.29654 99.3902 5.86442 95.0265 5.86442H89.9222L88.353 19.0384Z" fill="white"/>
<path d="M133.209 12.1587C133.209 17.9554 128.097 22.9985 120.812 22.9985C113.527 22.9985 108.414 17.9554 108.414 12.1587C108.414 5.84025 114.028 1 120.812 1C127.595 1 133.209 5.84025 133.209 12.1587ZM112.929 12.1587C112.929 15.6367 116.601 19.0278 120.812 19.0278C125.022 19.0278 128.628 15.6367 128.628 12.1587C128.628 8.36182 125.323 5.20261 120.812 5.20261C116.3 5.20261 112.929 8.36182 112.929 12.1587Z" fill="white"/>
<path d="M134.875 1.83984H155.51L155.008 6.03815H147.352V23.0051H143.05V6.03815H134.875V1.83984Z" fill="white"/>
</svg>
