<svg xmlns="http://www.w3.org/2000/svg" width="20" height="20" viewBox="0 0 20 20" fill="none">
  <path d="M10 2.625C12.5769 2.62517 14.75 4.59496 14.75 7.125V8.37988L14.8027 8.38379C15.4752 8.46747 16 9.16437 16 10.0117V15.7383C16 16.5856 15.4752 17.2825 14.8027 17.3662L14.667 17.375H5.33301L5.19727 17.3662C4.52482 17.2825 4 16.5856 4 15.7383V10.0117C4 9.14238 4.5525 8.43278 5.25 8.37988V7.125C5.25 4.59486 7.42298 2.625 10 2.625ZM5.51953 9.875C5.50908 9.90888 5.5 9.95454 5.5 10.0117V15.7383C5.5 15.7955 5.50908 15.8411 5.51953 15.875H14.4805C14.4909 15.8411 14.5 15.7955 14.5 15.7383V10.0117C14.5 9.95454 14.4909 9.90888 14.4805 9.875H5.51953ZM10 4.125C8.15874 4.125 6.75 5.51301 6.75 7.125V8.375H13.25V7.125C13.25 5.5131 11.8411 4.12516 10 4.125Z" fill="#41454C"/>
</svg> 